<?xml version="1.0" encoding="UTF-8" standalone="no"?>
<!-- Created with Inkscape (http://www.inkscape.org/) -->

<svg
   xmlns:dc="http://purl.org/dc/elements/1.1/"
   xmlns:cc="http://creativecommons.org/ns#"
   xmlns:rdf="http://www.w3.org/1999/02/22-rdf-syntax-ns#"
   xmlns:svg="http://www.w3.org/2000/svg"
   xmlns="http://www.w3.org/2000/svg"
   version="1.2"
   width="453.5433"
   height="340.15747"
   id="svg2">
  <defs
     id="defs4">
    <marker
       refX="0"
       refY="0"
       orient="auto"
       id="Arrow2Lend"
       style="overflow:visible">
      <path
         d="M 8.7185878,4.0337352 -2.2072895,0.01601326 8.7185884,-4.0017078 c -1.7454984,2.3720609 -1.7354408,5.6174519 -6e-7,8.035443 z"
         transform="matrix(-1.1,0,0,-1.1,-1.1,0)"
         id="path5657"
         style="fill-rule:evenodd;stroke-width:0.625;stroke-linejoin:round" />
    </marker>
    <marker
       refX="0"
       refY="0"
       orient="auto"
       id="Arrow2Lstart"
       style="overflow:visible">
      <path
         d="M 8.7185878,4.0337352 -2.2072895,0.01601326 8.7185884,-4.0017078 c -1.7454984,2.3720609 -1.7354408,5.6174519 -6e-7,8.035443 z"
         transform="matrix(1.1,0,0,1.1,1.1,0)"
         id="path5654"
         style="fill-rule:evenodd;stroke-width:0.625;stroke-linejoin:round" />
    </marker>
    <linearGradient
       id="linearGradient3892">
      <stop
         id="stop3894"
         style="stop-color:#e9f6ff;stop-opacity:1"
         offset="0" />
    </linearGradient>
  </defs>
  <metadata
     id="metadata7">
    <rdf:RDF>
      <cc:Work
         rdf:about="">
        <dc:format>image/svg+xml</dc:format>
        <dc:type
           rdf:resource="http://purl.org/dc/dcmitype/StillImage" />
        <dc:title></dc:title>
      </cc:Work>
    </rdf:RDF>
  </metadata>
  <g
     transform="translate(4.149475e-6,-698.0315)"
     id="layer1">
    <rect
       width="83.795158"
       height="58.640381"
       x="129.01964"
       y="773.06305"
       id="rect3880"
       style="fill:#e9f6ff;fill-opacity:1" />
    <text
       x="134.64566"
       y="797.24408"
       id="text5332"
       xml:space="preserve"
       style="font-size:40px;font-style:normal;font-weight:normal;line-height:125%;letter-spacing:0px;word-spacing:0px;fill:#000000;fill-opacity:1;stroke:none;font-family:Sans"><tspan
         x="134.64566"
         y="797.24408"
         id="tspan5334"
         style="font-size:10px">Extract Country</tspan><tspan
         x="134.64566"
         y="809.74408"
         id="tspan5338"
         style="font-size:10px"> Number Pairs</tspan><tspan
         x="134.64566"
         y="822.24408"
         id="tspan5336" /></text>
    <g
       transform="translate(-33.573867,59.80106)"
       id="g5402">
      <path
         d="m 134.64567,152.3622 a 24.80315,3.5433071 0 1 1 -49.606299,0 24.80315,3.5433071 0 1 1 49.606299,0 z"
         transform="translate(-4.149475e-6,699.97897)"
         id="path5366"
         style="fill:#65a049;fill-opacity:1" />
      <flowRoot
         transform="translate(-4.149475e-6,698.0315)"
         id="flowRoot5407"
         xml:space="preserve"
         style="font-size:40px;font-style:normal;font-weight:normal;line-height:125%;letter-spacing:0px;word-spacing:0px;fill:#000000;fill-opacity:1;stroke:none;font-family:Sans"><flowRegion
           id="flowRegion5409"><rect
             width="57.774837"
             height="51.283283"
             x="75.951195"
             y="155.79732"
             id="rect5411" /></flowRegion><flowPara
           id="flowPara5413"></flowPara></flowRoot>    </g>
    <g
       transform="translate(-35.433073,56.69293)"
       id="g5417">
      <text
         x="85.039368"
         y="889.37006"
         id="text5372"
         xml:space="preserve"
         style="font-size:40px;font-style:normal;font-weight:normal;line-height:125%;letter-spacing:0px;word-spacing:0px;fill:#000000;fill-opacity:1;stroke:none;font-family:Sans"><tspan
           x="85.039368"
           y="889.37006"
           id="tspan5376">KB</tspan></text>
      <path
         d="m 134.64567,152.3622 a 24.80315,3.5433071 0 1 1 -49.606299,0 24.80315,3.5433071 0 1 1 49.606299,0 z"
         transform="translate(1.2983068,744.12154)"
         id="path5380"
         style="fill:#65a049;fill-opacity:1" />
    </g>
    <g
       id="g5384"
       style="fill:#65a049;fill-opacity:1">
      <path
         d="m 245.20975,1000.9436 109.72079,21.5088 87.6623,-20.7401 -106.58687,-13.92963 z"
         id="path5394"
         style="fill:#afafde;fill-rule:evenodd;stroke:none" />
      <path
         d="m 245.20975,960.21348 0,40.73012 90.79622,-13.16093 0,-33.59053 z"
         id="path5386"
         style="fill:#353564;fill-rule:evenodd;stroke:none" />
      <path
         d="m 336.00597,954.19214 106.58687,6.37305 0,41.14711 -106.58687,-13.92963 z"
         id="path5396"
         style="fill:#e9e9ff;fill-rule:evenodd;stroke:none" />
      <path
         d="m 245.20975,960.21348 109.72079,9.84065 87.6623,-9.48894 -106.58687,-6.37305 z"
         id="path5388"
         style="fill:#4d4d9f;fill-rule:evenodd;stroke:none" />
      <path
         d="m 354.93054,970.05413 0,52.39827 87.6623,-20.7401 0,-41.14711 z"
         id="path5392"
         style="fill:#d7d7ff;fill-rule:evenodd;stroke:none" />
      <path
         d="m 245.20975,960.21348 109.72079,9.84065 0,52.39827 -109.72079,-21.5088 z"
         id="path5390"
         style="fill:#8686bf;fill-rule:evenodd;stroke:none" />
    </g>
    <text
       x="7.0866098"
       y="797.24408"
       id="text5422"
       xml:space="preserve"
       style="font-size:20px;font-style:normal;font-weight:normal;line-height:125%;letter-spacing:0px;word-spacing:0px;fill:#000000;fill-opacity:1;stroke:none;font-family:Sans"><tspan
         x="7.0866098"
         y="797.24408"
         id="tspan5424">Sentence</tspan></text>
    <path
       d="M 150.24389,832.72123 82.316209,908.05557"
       id="path5428"
       style="fill:none;stroke:#000000;stroke-width:1.19950306px;stroke-linecap:butt;stroke-linejoin:miter;stroke-opacity:1;marker-end:url(#Arrow2Lend);display:inline" />
    <text
       x="269.29001"
       y="946.06763"
       transform="scale(1.0000049,0.9999951)"
       id="text5436"
       xml:space="preserve"
       style="font-size:40.00018692px;font-style:normal;font-weight:normal;line-height:125%;letter-spacing:0px;word-spacing:0px;fill:#000000;fill-opacity:1;stroke:none;font-family:Sans"><tspan
         x="269.29001"
         y="946.06763"
         id="tspan5438"
         style="font-size:10.00004673px">Add S with Label R</tspan></text>
    <text
       x="106.29921"
       y="953.1496"
       id="text5440"
       xml:space="preserve"
       style="font-size:10px;font-style:normal;font-weight:normal;line-height:125%;letter-spacing:0px;word-spacing:0px;fill:#000000;fill-opacity:1;stroke:none;font-family:Sans"><tspan
         x="106.29921"
         y="953.1496"
         id="tspan5442">Match Found for Relation R</tspan></text>
    <text
       x="127.55905"
       y="868.11023"
       id="text5444"
       xml:space="preserve"
       style="font-size:40px;font-style:normal;font-weight:normal;line-height:125%;letter-spacing:0px;word-spacing:0px;fill:#000000;fill-opacity:1;stroke:none;font-family:Sans"><tspan
         x="127.55905"
         y="868.11023"
         id="tspan5446"
         style="font-size:12px">For each Country Number Pair</tspan></text>
    <path
       d="m 99.212598,92.125975 29.807042,5.082153"
       transform="translate(-4.149475e-6,698.0315)"
       id="path6076"
       style="fill:none;stroke:#000000;stroke-width:1px;stroke-linecap:butt;stroke-linejoin:miter;stroke-opacity:1;marker-start:none;marker-end:url(#Arrow2Lend);display:inline" />
    <path
       d="m 92.989272,213.30132 c -3.705412,-1.29332 -7.467368,-2.45265 -11.245837,-3.5202 -2.699326,-0.71883 -5.036297,-1.8819 -7.209666,-3.61253 -1.477453,-1.31826 -2.960296,-2.63142 -4.436208,-3.95214 -1.350906,-1.26061 -2.240703,-2.67932 -2.800271,-4.42873 -0.544716,-1.96093 -0.847748,-3.97793 -1.317136,-5.95723 -0.368133,-1.64357 -0.853948,-3.25829 -1.223238,-4.90128 -0.24468,-1.07711 -0.278579,-2.17994 -0.302404,-3.279 -0.01045,-1.34073 -0.1992,-2.67455 -0.457889,-3.9877 -0.450193,-1.74651 -0.908929,-3.49865 -1.589285,-5.17161 -0.601447,-1.25401 -0.916951,-2.59091 -1.059894,-3.96598 -0.1048,-1.17307 -0.06106,-2.34958 -0.226001,-3.51658 -0.128775,-1.1748 -0.486534,-2.30769 -0.843373,-3.42929 -0.443845,-1.34231 -0.651789,-2.7387 -0.786555,-4.14083 -0.09581,-1.09619 -0.09701,-2.19673 -0.08754,-3.296 0.01732,-1.58044 0.03102,-3.16094 0.02711,-4.74148 -0.06672,-1.35871 0.0091,-2.70134 0.175594,-4.04872 0.103361,-1.35995 0.326339,-2.70455 0.507492,-4.05519 0.127428,-1.42955 0.251225,-2.85351 0.476168,-4.27219 0.235077,-1.64328 0.590188,-3.26523 0.859114,-4.90259 0.221027,-1.84248 0.546413,-3.66973 0.81387,-5.50547 0.283192,-1.63178 0.569612,-3.26174 0.724879,-4.91135 0.07973,-1.89721 0.200419,-3.78984 0.338322,-5.6838 0.153328,-1.46726 0.411725,-2.91987 0.565857,-4.38703 0.07034,-1.86265 0.217333,-3.70747 0.474826,-5.55412 0.250252,-1.62222 0.411349,-3.25516 0.507372,-4.89313 0.0084,-1.38729 0.10662,-2.76484 0.251893,-4.143702 0.06358,-0.963974 0.293124,-1.904153 0.467252,-2.85138 0,0 6.098069,-2.972912 6.098069,-2.972912 l 0,0 c -0.163184,0.945374 -0.432373,1.871145 -0.519424,2.827671 -0.160206,1.367234 -0.279933,2.72783 -0.26244,4.106263 -0.08362,1.67151 -0.309112,3.32982 -0.55572,4.9843 -0.273622,1.82226 -0.42353,3.6381 -0.404927,5.48226 -0.124574,1.48469 -0.438136,2.94056 -0.647573,4.4143 -0.150202,1.88656 -0.259871,3.76958 -0.282127,5.66197 -0.126183,1.67592 -0.443474,3.32063 -0.757288,4.97033 -0.2555,1.83002 -0.586852,3.64889 -0.760354,5.4897 -0.247174,1.64812 -0.673455,3.26316 -0.882824,4.91832 -0.234273,1.40385 -0.336052,2.81544 -0.438471,4.23361 -0.184021,1.34872 -0.4513,2.686 -0.517456,4.04846 -0.153732,1.32996 -0.315035,2.64953 -0.243314,3.99369 -0.0069,1.57343 0.0015,3.1469 0.01306,4.7203 0.0094,1.08267 0.0013,2.16623 0.05848,3.24778 0.09495,1.35649 0.261959,2.71117 0.703313,4.00501 0.39083,1.14717 0.76615,2.31347 0.924688,3.51857 0.178492,1.18299 0.154224,2.36506 0.214057,3.55859 0.122802,1.31633 0.382203,2.6031 0.945625,3.81038 0.681391,1.71421 1.125696,3.50688 1.631659,5.2783 0.312605,1.33401 0.546068,2.70256 0.578572,4.07365 0.01237,1.06156 0.03694,2.12728 0.225413,3.17518 0.316943,1.65497 0.782616,3.27698 1.135287,4.92437 0.481897,1.95841 0.796123,3.95399 1.332272,5.89868 0.503482,1.65022 1.347827,2.94606 2.623945,4.11885 1.443823,1.32681 2.898702,2.6427 4.370862,3.93758 2.078231,1.61304 4.38175,2.78741 6.927268,3.49898 3.818663,1.1735 7.633484,2.35407 11.487741,3.40566 0,0 -5.602845,3.77941 -5.602845,3.77941 z"
       transform="translate(-4.149475e-6,698.0315)"
       id="path6998"
       style="opacity:0.78189302;fill:none;stroke-width:1.06653547;stroke-miterlimit:4;stroke-dasharray:none" />
    <rect
       width="62.660202"
       height="28.346457"
       x="28.547733"
       y="986.80304"
       id="rect7018"
       style="opacity:0.78189302;fill:#65a0f3;fill-opacity:0.69863018;stroke-width:0.29055119;stroke-miterlimit:4;stroke-dasharray:none" />
    <text
       x="28.346453"
       y="995.66931"
       id="text7020"
       xml:space="preserve"
       style="font-size:8px;font-style:normal;font-weight:normal;line-height:125%;letter-spacing:0px;word-spacing:0px;fill:#000000;fill-opacity:1;stroke:none;font-family:Sans"><tspan
         x="28.346453"
         y="995.66931"
         id="tspan7022">Process </tspan><tspan
         x="28.346453"
         y="1005.6693"
         id="tspan7024">Next Sentence</tspan></text>
    <path
       d="M 245.20975,294.68776 91.207939,301.54893"
       transform="translate(-4.149475e-6,698.0315)"
       id="path7026"
       style="fill:none;stroke:#000000;stroke-width:0.99921262;stroke-linecap:butt;stroke-linejoin:miter;stroke-miterlimit:4;stroke-opacity:1;stroke-dasharray:none;marker-end:url(#Arrow2Lend)" />
    <path
       d="m 76.740053,956.14193 -7.696502,30.93141"
       id="path7212"
       style="fill:none;stroke:#000000;stroke-width:0.55834132px;stroke-linecap:butt;stroke-linejoin:miter;stroke-opacity:1;marker-end:url(#Arrow2Lend);display:inline" />
    <text
       x="389.76376"
       y="946.06299"
       id="text7398"
       xml:space="preserve"
       style="font-size:10px;font-style:normal;font-weight:normal;line-height:125%;letter-spacing:0px;word-spacing:0px;fill:#3716de;fill-opacity:0.76712329;stroke:none;font-family:Sans"><tspan
         x="389.76376"
         y="946.06299"
         id="tspan7404"
         style="fill:#3716de;fill-opacity:0.76712329">Training</tspan><tspan
         x="389.76376"
         y="958.56299"
         id="tspan7410"
         style="fill:#3716de;fill-opacity:0.76712329">Data</tspan></text>
    <path
       d="M 98.951768,953.6291 245.48521,970.40785"
       id="path7633"
       style="fill:none;stroke:#000000;stroke-width:0.66696936;stroke-linecap:butt;stroke-linejoin:miter;stroke-miterlimit:4;stroke-opacity:1;stroke-dasharray:none;marker-end:url(#Arrow2Lend)" />
  </g>
</svg>
